<svg width="3376" height="1498" viewBox="0 0 3376 1498" fill="none" xmlns="http://www.w3.org/2000/svg">
<g clip-path="url(#clip0_112_246)">
<rect width="3375.77" height="1498" fill="white"/>
<g clip-path="url(#clip1_112_246)">
<circle r="387.916" transform="matrix(1.19249e-08 -1 -1 -1.19249e-08 3162.25 1170.8)" fill="url(#paint0_linear_112_246)"/>
<path d="M2900.51 879.921C2704.41 879.921 2545.43 1038.9 2545.43 1235.01C2545.43 1431.11 2704.41 1590.09 2900.51 1590.09C3096.62 1590.09 3348.28 1321.68 3348.28 1125.58C3348.28 929.469 3096.62 879.921 2900.51 879.921Z" fill="url(#paint1_linear_112_246)"/>
<path d="M2954.59 630.045C2722.54 615.56 2409.16 735.752 2389.25 1054.58C2369.35 1373.4 2475.64 1638.39 2707.68 1652.87C2939.72 1667.36 3155.58 1317.32 3175.48 998.491C3195.38 679.666 3186.63 644.53 2954.59 630.045Z" fill="url(#paint2_linear_112_246)"/>
<path d="M2565.4 944.001C2307.42 1111.78 2083.79 1168.25 2191.59 1334C2299.38 1499.76 2565.44 1411.37 2823.43 1243.6C3081.42 1075.82 3262.77 888.083 3154.97 722.324C3047.17 556.566 2823.39 776.222 2565.4 944.001Z" fill="url(#paint3_linear_112_246)"/>
<path d="M2157.48 847.522C2042.91 899.922 2007.9 1068.92 2079.28 1224.98C2150.67 1381.05 2305.29 1451.54 2419.85 1399.14C2534.42 1346.74 2682.52 1191.05 2611.14 1034.99C2539.76 878.919 2272.05 795.123 2157.48 847.522Z" fill="url(#paint4_linear_112_246)"/>
<path d="M3009.05 141.988C2807.05 87.8639 2494.91 228.169 2442.36 424.311C2389.8 620.453 2555.93 813.304 2757.93 867.428C2959.93 921.553 3159.03 830.149 3211.58 634.007C3264.14 437.865 3211.05 196.113 3009.05 141.988Z" fill="url(#paint5_linear_112_246)"/>
<path d="M2373.6 1302.94C2450.83 1329.36 2536.31 1312.1 2597.23 1257.78L3120.82 790.904C3180.27 737.889 3207.44 657.496 3192.32 579.285L3173.94 484.141C3142.21 319.979 2949.43 245.869 2815.91 346.51L2145.35 851.955C2000.58 961.082 2036.71 1187.68 2208.25 1246.37L2373.6 1302.94Z" fill="url(#paint6_linear_112_246)"/>
<path d="M2373.6 1302.94C2450.83 1329.36 2536.31 1312.1 2597.23 1257.78L3120.82 790.904C3180.27 737.889 3207.44 657.496 3192.32 579.285L3173.94 484.141C3142.21 319.979 2949.43 245.869 2815.91 346.51L2145.35 851.955C2000.58 961.082 2036.71 1187.68 2208.25 1246.37L2373.6 1302.94Z" fill="url(#paint7_linear_112_246)" fill-opacity="0.2"/>
<rect width="588.643" height="1123.59" rx="294.321" transform="matrix(-0.239497 -0.970897 -0.970897 0.239497 3198.1 651.926)" fill="url(#paint8_linear_112_246)"/>
<path d="M2695.7 536.944C2811.7 446.49 2832.41 279.129 2741.95 163.131L2719.45 134.276C2638.28 30.1803 2492.82 0.888844 2382.21 72.93C2343.2 98.3368 2302.37 126.018 2263.78 154.132C2192.74 205.896 2134.51 292.444 2094.05 366.006C2049.66 446.727 2065.21 544.33 2121.45 617.287L2134.86 634.677C2225.02 751.624 2393.12 772.893 2509.57 682.087L2695.7 536.944Z" fill="url(#paint9_linear_112_246)"/>
</g>
</g>
<defs>
<linearGradient id="paint0_linear_112_246" x1="491.366" y1="57.3335" x2="388.898" y2="601.392" gradientUnits="userSpaceOnUse">
<stop stop-color="#FE1948"/>
<stop offset="1" stop-color="#F60CA5"/>
</linearGradient>
<linearGradient id="paint1_linear_112_246" x1="3272.35" y1="972.818" x2="2947.41" y2="1605.94" gradientUnits="userSpaceOnUse">
<stop stop-color="#FC165E"/>
<stop offset="1" stop-color="#D917FA"/>
</linearGradient>
<linearGradient id="paint2_linear_112_246" x1="2931.78" y1="1557.93" x2="3141.7" y2="957.185" gradientUnits="userSpaceOnUse">
<stop stop-color="#DB17F3"/>
<stop offset="1" stop-color="#8D6CE7"/>
</linearGradient>
<linearGradient id="paint3_linear_112_246" x1="3165.87" y1="911.83" x2="2239.52" y2="1411.5" gradientUnits="userSpaceOnUse">
<stop stop-color="#8E6CE8"/>
<stop offset="1" stop-color="#41C0D5"/>
</linearGradient>
<linearGradient id="paint4_linear_112_246" x1="2494.17" y1="1035.23" x2="2079.28" y2="1224.99" gradientUnits="userSpaceOnUse">
<stop stop-color="#49B8CE"/>
<stop offset="1" stop-color="#52ACD9"/>
</linearGradient>
<linearGradient id="paint5_linear_112_246" x1="3188.06" y1="320.997" x2="2451.56" y2="715.84" gradientUnits="userSpaceOnUse">
<stop stop-color="#24DAB3"/>
<stop offset="1" stop-color="#1FD889"/>
</linearGradient>
<linearGradient id="paint6_linear_112_246" x1="2409.62" y1="1312.2" x2="3149.19" y2="419.197" gradientUnits="userSpaceOnUse">
<stop stop-color="#57A9DB"/>
<stop offset="1" stop-color="#23DAAE"/>
</linearGradient>
<linearGradient id="paint7_linear_112_246" x1="2148.78" y1="1215.02" x2="3155.32" y2="439.655" gradientUnits="userSpaceOnUse">
<stop stop-color="#4AB7D7"/>
<stop offset="1" stop-color="#24DAAF"/>
</linearGradient>
<linearGradient id="paint8_linear_112_246" x1="270.148" y1="-0.452613" x2="294.321" y2="1123.59" gradientUnits="userSpaceOnUse">
<stop stop-color="#24DAAF"/>
<stop offset="1" stop-color="#19D871"/>
</linearGradient>
<linearGradient id="paint9_linear_112_246" x1="2731.2" y1="149.341" x2="2397.9" y2="728.547" gradientUnits="userSpaceOnUse">
<stop stop-color="#0BD525"/>
<stop offset="1" stop-color="#1BD878"/>
</linearGradient>
<clipPath id="clip0_112_246">
<rect width="3375.77" height="1498" fill="white"/>
</clipPath>
<clipPath id="clip1_112_246">
<rect width="1571.19" height="1475.03" fill="white" transform="matrix(1.19249e-08 -1 -1 -1.19249e-08 3384.46 1497.34)"/>
</clipPath>
</defs>
</svg>
