<svg width="3815" height="1788" viewBox="0 0 3815 1788" fill="none" xmlns="http://www.w3.org/2000/svg">
<g clip-path="url(#clip0_28_148)">
<rect width="3814.4" height="1788" fill="#F2F2F2"/>
<g clip-path="url(#clip1_28_148)">
<rect x="3611.88" y="1665.57" width="252.307" height="202.64" fill="#FC1569"/>
<circle r="438.319" transform="matrix(1.19249e-08 -1 -1 -1.19249e-08 3563.32 1419.03)" fill="url(#paint0_linear_28_148)"/>
<path d="M3267.58 1090.36C3045.99 1090.36 2866.36 1269.99 2866.36 1491.58C2866.36 1713.17 3045.99 1892.8 3267.58 1892.8C3489.17 1892.8 3773.52 1589.52 3773.52 1367.93C3773.52 1146.34 3489.17 1090.36 3267.58 1090.36Z" fill="url(#paint1_linear_28_148)"/>
<path d="M3328.67 808.013C3066.48 791.646 2712.38 927.455 2689.89 1287.71C2667.4 1647.96 2787.5 1947.37 3049.69 1963.74C3311.88 1980.1 3555.78 1584.58 3578.27 1224.33C3600.76 864.081 3590.87 824.38 3328.67 808.013Z" fill="url(#paint2_linear_28_148)"/>
<path d="M2888.93 1162.76C2597.42 1352.34 2344.73 1416.14 2466.54 1603.44C2588.34 1790.74 2888.97 1690.86 3180.48 1501.28C3471.99 1311.7 3676.9 1099.58 3555.09 912.282C3433.29 724.987 3180.44 973.183 2888.93 1162.76Z" fill="url(#paint3_linear_28_148)"/>
<path d="M2428 1053.75C2298.55 1112.96 2258.99 1303.91 2339.64 1480.26C2420.3 1656.6 2595.01 1736.25 2724.46 1677.04C2853.92 1617.83 3021.26 1441.92 2940.6 1265.57C2859.95 1089.22 2557.45 994.54 2428 1053.75Z" fill="url(#paint4_linear_28_148)"/>
<path d="M3390.21 256.542C3161.97 195.385 2809.28 353.92 2749.89 575.547C2690.51 797.175 2878.22 1015.08 3106.47 1076.24C3334.71 1137.4 3559.68 1034.12 3619.07 812.49C3678.45 590.862 3618.46 317.699 3390.21 256.542Z" fill="url(#paint5_linear_28_148)"/>
<path d="M2672.21 1568.34C2759.47 1598.2 2856.05 1578.69 2924.89 1517.31L3516.51 989.773C3583.69 929.87 3614.38 839.031 3597.3 750.657L3576.53 643.151C3540.68 457.659 3322.85 373.92 3171.98 487.638L2414.3 1058.76C2250.71 1182.06 2291.54 1438.11 2485.36 1504.42L2672.21 1568.34Z" fill="url(#paint6_linear_28_148)"/>
<path d="M2672.21 1568.34C2759.47 1598.2 2856.05 1578.69 2924.89 1517.31L3516.51 989.773C3583.69 929.87 3614.38 839.031 3597.3 750.657L3576.53 643.151C3540.68 457.659 3322.85 373.92 3171.98 487.638L2414.3 1058.76C2250.71 1182.06 2291.54 1438.11 2485.36 1504.42L2672.21 1568.34Z" fill="url(#paint7_linear_28_148)" fill-opacity="0.2"/>
<rect width="665.127" height="1269.58" rx="332.564" transform="matrix(-0.239497 -0.970897 -0.970897 0.239497 3603.83 832.737)" fill="url(#paint8_linear_28_148)"/>
<path d="M2982.41 741.437C3110.33 641.682 3133.17 457.111 3033.41 329.186V329.186C2930.26 196.9 2737.39 177.67 2610.79 287.724C2526.03 361.398 2443.16 434.037 2411.1 463.985C2390.59 483.15 2367.53 509.628 2344.82 538.03C2268.32 633.712 2275.67 768.981 2350.47 865.999V865.999C2448.23 992.798 2630.49 1015.86 2756.75 917.402L2982.41 741.437Z" fill="url(#paint9_linear_28_148)"/>
</g>
</g>
<defs>
<linearGradient id="paint0_linear_28_148" x1="555.211" y1="64.783" x2="439.429" y2="679.532" gradientUnits="userSpaceOnUse">
<stop stop-color="#FE1948"/>
<stop offset="1" stop-color="#F60CA5"/>
</linearGradient>
<linearGradient id="paint1_linear_28_148" x1="3687.73" y1="1195.32" x2="3320.57" y2="1910.71" gradientUnits="userSpaceOnUse">
<stop stop-color="#FC165E"/>
<stop offset="1" stop-color="#D917FA"/>
</linearGradient>
<linearGradient id="paint2_linear_28_148" x1="3302.91" y1="1856.46" x2="3540.11" y2="1177.66" gradientUnits="userSpaceOnUse">
<stop stop-color="#DB17F3"/>
<stop offset="1" stop-color="#8D6CE7"/>
</linearGradient>
<linearGradient id="paint3_linear_28_148" x1="3567.42" y1="1126.41" x2="2520.69" y2="1691.01" gradientUnits="userSpaceOnUse">
<stop stop-color="#8E6CE8"/>
<stop offset="1" stop-color="#41C0D5"/>
</linearGradient>
<linearGradient id="paint4_linear_28_148" x1="2808.43" y1="1265.85" x2="2339.64" y2="1480.26" gradientUnits="userSpaceOnUse">
<stop stop-color="#49B8CE"/>
<stop offset="1" stop-color="#52ACD9"/>
</linearGradient>
<linearGradient id="paint5_linear_28_148" x1="3592.48" y1="458.81" x2="2760.29" y2="904.955" gradientUnits="userSpaceOnUse">
<stop stop-color="#24DAB3"/>
<stop offset="1" stop-color="#1FD889"/>
</linearGradient>
<linearGradient id="paint6_linear_28_148" x1="2712.91" y1="1578.8" x2="3548.56" y2="569.768" gradientUnits="userSpaceOnUse">
<stop stop-color="#57A9DB"/>
<stop offset="1" stop-color="#23DAAE"/>
</linearGradient>
<linearGradient id="paint7_linear_28_148" x1="2418.17" y1="1468.99" x2="3555.5" y2="592.885" gradientUnits="userSpaceOnUse">
<stop stop-color="#4AB7D7"/>
<stop offset="1" stop-color="#24DAAF"/>
</linearGradient>
<linearGradient id="paint8_linear_28_148" x1="305.249" y1="-0.511422" x2="332.564" y2="1269.58" gradientUnits="userSpaceOnUse">
<stop stop-color="#24DAAF"/>
<stop offset="1" stop-color="#19D871"/>
</linearGradient>
<linearGradient id="paint9_linear_28_148" x1="3016.82" y1="307.911" x2="2640.22" y2="962.374" gradientUnits="userSpaceOnUse">
<stop stop-color="#0BD525"/>
<stop offset="1" stop-color="#1BD878"/>
</linearGradient>
<clipPath id="clip0_28_148">
<rect width="3814.4" height="1788" fill="white"/>
</clipPath>
<clipPath id="clip1_28_148">
<rect width="1788" height="3814.4" fill="white" transform="matrix(1.19249e-08 -1 -1 -1.19249e-08 3814.4 1788)"/>
</clipPath>
</defs>
</svg>
