<svg width="95" height="95" viewBox="0 0 95 95" fill="none" xmlns="http://www.w3.org/2000/svg">
<path d="M14.3675 89.1818C14.2047 89.8784 14.2018 90.6029 14.3589 91.3008C14.516 91.9987 14.829 92.6521 15.2745 93.2118C15.72 93.7715 16.2865 94.2232 16.9314 94.5329C17.5762 94.8426 18.2829 95.0022 18.9983 95C19.9364 95.0002 20.8537 94.7225 21.6342 94.2021L47.4954 76.9613L73.3566 94.2021C74.1657 94.7392 75.1198 95.0157 76.0906 94.9944C77.0615 94.9731 78.0025 94.6551 78.7872 94.083C79.5719 93.5109 80.1626 92.7122 80.4798 91.7944C80.7971 90.8766 80.8256 89.8836 80.5617 88.9491L71.8748 58.5521L93.4187 39.1645C94.1087 38.5432 94.6014 37.7333 94.836 36.8349C95.0706 35.9365 95.0367 34.9891 94.7385 34.1098C94.4404 33.2304 93.891 32.4578 93.1584 31.8874C92.4258 31.317 91.542 30.9738 90.6164 30.9003L63.5394 28.744L51.8223 2.80682C51.4491 1.97144 50.8422 1.2619 50.0747 0.763844C49.3072 0.265789 48.4119 0.000502876 47.497 7.14228e-07C46.582 -0.000501447 45.6865 0.263802 44.9185 0.761014C44.1504 1.25823 43.5427 1.9671 43.1686 2.80207L31.4515 28.744L4.37444 30.8956C3.4647 30.9676 2.59497 31.3003 1.86933 31.8537C1.14368 32.4071 0.592833 33.1579 0.282689 34.0161C-0.0274541 34.8744 -0.0837625 35.8039 0.120501 36.6933C0.324765 37.5828 0.780951 38.3945 1.43448 39.0315L21.449 58.5378L14.3675 89.1818ZM47.4954 16.2955L57.194 37.7681L59.9867 37.9913H59.9915L78.8566 39.4875L63.3209 53.4701L63.3161 53.4796L61.1171 55.4554L61.9293 58.2908V58.3051L67.8804 79.1318L47.4954 65.5434V16.2955Z" fill="#FFBD14"/>
</svg>
