<svg width="95" height="95" viewBox="0 0 95 95" fill="none" xmlns="http://www.w3.org/2000/svg">
<path d="M94.7358 34.1051C94.4373 33.2258 93.8878 32.4532 93.1552 31.8827C92.4226 31.3121 91.539 30.9686 90.6134 30.8945L63.5372 28.743L51.8205 2.80672C51.4474 1.97137 50.8404 1.26186 50.073 0.763818C49.3055 0.26578 48.4103 0.000502859 47.4954 7.14203e-07C46.5805 -0.00050143 45.685 0.263793 44.9169 0.760989C44.1489 1.25818 43.5412 1.96703 43.1672 2.80198L31.4505 28.743L4.3743 30.8945C3.46458 30.9666 2.59489 31.2992 1.86926 31.8526C1.14364 32.406 0.592813 33.1567 0.28268 34.015C-0.0274532 34.8732 -0.0837596 35.8027 0.120497 36.6921C0.324754 37.5815 0.780925 38.3932 1.43444 39.0302L21.4435 58.5358L14.367 89.1788C14.1521 90.1063 14.221 91.077 14.5646 91.965C14.9083 92.8529 15.5109 93.617 16.2943 94.1582C17.0776 94.6994 18.0056 94.9926 18.9576 94.9999C19.9097 95.0071 20.842 94.7281 21.6335 94.1989L47.4938 76.9586L73.3542 94.1989C74.1631 94.736 75.1172 95.0125 76.088 94.9912C77.0589 94.9699 77.9999 94.6518 78.7846 94.0798C79.5692 93.5077 80.1599 92.7091 80.4771 91.7913C80.7943 90.8735 80.8229 89.8806 80.559 88.9461L71.8723 58.5501L93.4155 39.1632C94.8261 37.8903 95.3437 35.9051 94.7358 34.1051V34.1051Z" fill="#FFBD14"/>
</svg>
