<svg width="95" height="95" viewBox="0 0 95 95" fill="none" xmlns="http://www.w3.org/2000/svg">
<path d="M59.4362 30.5956L60.5307 33.0183L63.1808 33.2289L90.2544 35.3802C90.2546 35.3802 90.2549 35.3802 90.2551 35.3802C90.3043 35.3843 90.3513 35.4026 90.3902 35.433C90.4284 35.4627 90.4573 35.5027 90.4735 35.5482C90.5059 35.6482 90.4775 35.7523 90.402 35.8212C90.4016 35.8216 90.4012 35.8219 90.4008 35.8223L68.8622 55.2051L66.7734 57.0848L67.5456 59.7866L76.2284 90.1692C76.2286 90.17 76.2289 90.1709 76.2291 90.1718C76.2424 90.221 76.2406 90.273 76.224 90.3213C76.207 90.3703 76.1755 90.413 76.1335 90.4436C76.0915 90.4742 76.0412 90.4912 75.9894 90.4923C75.938 90.4934 75.8876 90.479 75.8446 90.4509C75.8442 90.4505 75.8437 90.4502 75.8432 90.4499L49.99 73.2144L47.4938 71.5503L44.9977 73.2144L19.1374 90.4546L19.1324 90.4579C19.0909 90.4857 19.0419 90.5004 18.9919 90.5C18.9419 90.4996 18.8932 90.4842 18.8521 90.4558C18.8109 90.4274 18.7793 90.3873 18.7613 90.3406C18.7432 90.294 18.7396 90.2431 18.7509 90.1944L18.7516 90.1913L25.8281 59.5484L26.3979 57.0812L24.5847 55.3136L4.57562 35.8079L4.57532 35.8076C4.541 35.7742 4.51705 35.7315 4.50633 35.6849C4.4956 35.6382 4.49856 35.5894 4.51484 35.5443C4.53113 35.4992 4.56005 35.4598 4.59815 35.4308C4.63624 35.4017 4.6819 35.3842 4.72968 35.3804L4.73074 35.3804L31.8069 33.2289L34.4572 33.0183L35.5515 30.5954L47.2683 4.65431L47.2739 4.6418C47.2928 4.59954 47.3236 4.56367 47.3624 4.53851C47.4013 4.51335 47.4466 4.49997 47.4929 4.5C47.5392 4.50003 47.5845 4.51345 47.6233 4.53865C47.6622 4.56386 47.6929 4.59977 47.7118 4.64204L47.7157 4.65069L47.7196 4.65933L59.4362 30.5956Z" stroke="#FFBD14" stroke-width="9"/>
</svg>
