<svg width="784" height="1339" viewBox="0 0 784 1339" fill="none" xmlns="http://www.w3.org/2000/svg">
<g clip-path="url(#clip0_28_149)">
<rect width="784" height="1339" fill="white"/>
<g clip-path="url(#clip1_28_149)">
<circle r="292.238" transform="matrix(1.19249e-08 -1 -1 -1.19249e-08 760.717 1361.7)" fill="url(#paint0_linear_28_149)"/>
<path d="M563.536 1142.57C415.798 1142.57 296.032 1262.33 296.032 1410.07C296.032 1557.81 415.798 1677.58 563.536 1677.58C711.275 1677.58 900.861 1475.37 900.861 1327.63C900.861 1179.9 711.275 1142.57 563.536 1142.57Z" fill="url(#paint1_linear_28_149)"/>
<path d="M604.271 954.323C429.462 943.41 193.37 1033.96 178.376 1274.15C163.383 1514.33 243.456 1713.96 418.265 1724.87C593.074 1735.78 755.69 1472.08 770.684 1231.89C785.678 991.705 779.08 965.235 604.271 954.323Z" fill="url(#paint2_linear_28_149)"/>
<path d="M311.08 1190.84C116.723 1317.24 -51.7485 1359.78 29.4618 1484.65C110.672 1609.53 311.108 1542.94 505.465 1416.54C699.821 1290.15 836.44 1148.72 755.23 1023.84C674.02 898.967 505.437 1064.45 311.08 1190.84Z" fill="url(#paint3_linear_28_149)"/>
<path d="M3.76757 1118.16C-82.5416 1157.64 -108.916 1284.95 -55.1407 1402.52C-1.36572 1520.1 115.119 1573.2 201.429 1533.73C287.738 1494.25 399.308 1376.96 345.533 1259.39C291.758 1141.81 90.0767 1078.69 3.76757 1118.16Z" fill="url(#paint4_linear_28_149)"/>
<path d="M645.301 586.644C493.124 545.869 257.975 651.568 218.382 799.333C178.789 947.097 303.942 1092.38 456.119 1133.16C608.296 1173.93 758.289 1105.07 797.882 957.308C837.475 809.543 797.478 627.419 645.301 586.644Z" fill="url(#paint5_linear_28_149)"/>
<path d="M166.586 1461.25C224.768 1481.16 289.161 1468.15 335.058 1427.23L729.504 1075.51C774.295 1035.57 794.759 975.004 783.373 916.083L769.521 844.406C745.622 720.734 600.385 664.903 499.799 740.722L-5.36799 1121.5C-114.435 1203.71 -87.2135 1374.42 42.0141 1418.63L166.586 1461.25Z" fill="url(#paint6_linear_28_149)"/>
<path d="M166.586 1461.25C224.768 1481.16 289.161 1468.15 335.058 1427.23L729.504 1075.51C774.295 1035.57 794.759 975.004 783.373 916.083L769.521 844.406C745.622 720.734 600.385 664.903 499.799 740.722L-5.36799 1121.5C-114.435 1203.71 -87.2135 1374.42 42.0141 1418.63L166.586 1461.25Z" fill="url(#paint7_linear_28_149)" fill-opacity="0.2"/>
<rect width="443.457" height="846.461" rx="221.728" transform="matrix(-0.239497 -0.970897 -0.970897 0.239497 787.726 970.807)" fill="url(#paint8_linear_28_149)"/>
<path d="M373.406 909.935C458.697 843.426 473.923 720.368 407.414 635.077V635.077C338.637 546.879 210.047 534.058 125.637 607.434C69.1303 656.554 13.8766 704.984 -7.49653 724.951C-21.1739 737.729 -36.5488 755.382 -51.6886 774.318C-102.693 838.112 -97.7909 928.299 -47.9209 992.983V992.983C17.2575 1077.52 138.774 1092.9 222.955 1027.26L373.406 909.935Z" fill="url(#paint9_linear_28_149)"/>
</g>
</g>
<defs>
<linearGradient id="paint0_linear_28_149" x1="370.173" y1="43.1924" x2="292.978" y2="453.061" gradientUnits="userSpaceOnUse">
<stop stop-color="#FE1948"/>
<stop offset="1" stop-color="#F60CA5"/>
</linearGradient>
<linearGradient id="paint1_linear_28_149" x1="843.659" y1="1212.55" x2="598.867" y2="1689.52" gradientUnits="userSpaceOnUse">
<stop stop-color="#FC165E"/>
<stop offset="1" stop-color="#D917FA"/>
</linearGradient>
<linearGradient id="paint2_linear_28_149" x1="587.09" y1="1653.35" x2="745.238" y2="1200.77" gradientUnits="userSpaceOnUse">
<stop stop-color="#DB17F3"/>
<stop offset="1" stop-color="#8D6CE7"/>
</linearGradient>
<linearGradient id="paint3_linear_28_149" x1="763.446" y1="1166.61" x2="65.5695" y2="1543.04" gradientUnits="userSpaceOnUse">
<stop stop-color="#8E6CE8"/>
<stop offset="1" stop-color="#41C0D5"/>
</linearGradient>
<linearGradient id="paint4_linear_28_149" x1="257.412" y1="1259.57" x2="-55.1409" y2="1402.52" gradientUnits="userSpaceOnUse">
<stop stop-color="#49B8CE"/>
<stop offset="1" stop-color="#52ACD9"/>
</linearGradient>
<linearGradient id="paint5_linear_28_149" x1="780.158" y1="721.501" x2="225.317" y2="1018.96" gradientUnits="userSpaceOnUse">
<stop stop-color="#24DAB3"/>
<stop offset="1" stop-color="#1FD889"/>
</linearGradient>
<linearGradient id="paint6_linear_28_149" x1="193.722" y1="1468.22" x2="750.875" y2="795.48" gradientUnits="userSpaceOnUse">
<stop stop-color="#57A9DB"/>
<stop offset="1" stop-color="#23DAAE"/>
</linearGradient>
<linearGradient id="paint7_linear_28_149" x1="-2.78407" y1="1395.02" x2="755.498" y2="810.892" gradientUnits="userSpaceOnUse">
<stop stop-color="#4AB7D7"/>
<stop offset="1" stop-color="#24DAAF"/>
</linearGradient>
<linearGradient id="paint8_linear_28_149" x1="203.517" y1="-0.340978" x2="221.728" y2="846.461" gradientUnits="userSpaceOnUse">
<stop stop-color="#24DAAF"/>
<stop offset="1" stop-color="#19D871"/>
</linearGradient>
<linearGradient id="paint9_linear_28_149" x1="396.353" y1="620.893" x2="145.259" y2="1057.24" gradientUnits="userSpaceOnUse">
<stop stop-color="#0BD525"/>
<stop offset="1" stop-color="#1BD878"/>
</linearGradient>
<clipPath id="clip0_28_149">
<rect width="784" height="1339" fill="white"/>
</clipPath>
<clipPath id="clip1_28_149">
<rect width="1192.1" height="2543.15" fill="white" transform="matrix(1.19249e-08 -1 -1 -1.19249e-08 928.116 1607.7)"/>
</clipPath>
</defs>
</svg>
