<svg width="501" height="149" viewBox="0 0 501 149" fill="none" xmlns="http://www.w3.org/2000/svg">
<path d="M37.8817 140C35.2826 140 32.6835 140 30.0844 140C27.4853 140 24.8862 140 22.2871 140C21.9158 140 21.5446 139.938 21.1733 139.814C20.9257 139.567 20.6782 139.319 20.4307 139.072C20.3069 138.7 20.245 138.329 20.245 137.958C20.245 127.809 20.245 117.722 20.245 107.697C20.245 97.672 20.245 87.7088 20.245 77.8076C20.245 67.7825 20.245 57.8193 20.245 47.918C20.245 37.893 20.245 27.8679 20.245 17.8429H39.5525L37.8817 21.3702C37.8817 24.2168 37.8817 27.1253 37.8817 30.0957C37.8817 33.0661 37.8817 35.9746 37.8817 38.8212C37.8817 48.475 37.8817 58.1287 37.8817 67.7825C37.8817 77.4363 37.8817 86.8425 37.8817 96.0012C37.8817 105.036 37.8817 113.638 37.8817 121.806C37.8817 124.777 37.8817 127.809 37.8817 130.903C37.8817 133.874 37.8817 136.906 37.8817 140ZM9.10606 10.0456H89.8634C90.3585 10.0456 90.7298 10.1694 90.9773 10.4169C91.2248 10.5407 91.4105 10.7882 91.5343 11.1595C91.7818 11.4071 91.9056 11.7165 91.9056 12.0878C91.9056 13.6967 91.9056 15.2438 91.9056 16.729C91.9056 18.0904 91.9056 19.5137 91.9056 20.9989C91.9056 22.3603 91.9056 23.9074 91.9056 25.6401H11.1482C10.7769 25.6401 10.4056 25.5783 10.0343 25.4545C9.78677 25.207 9.53924 24.9594 9.29171 24.7119C9.16794 24.3406 9.10606 23.9693 9.10606 23.598C9.10606 20.9989 9.10606 18.7093 9.10606 16.729C9.10606 14.7487 9.10606 12.521 9.10606 10.0456ZM29.3418 70.9385H82.0662C82.685 70.9385 83.1801 71.1242 83.5514 71.4955C83.9226 71.8668 84.1083 72.3618 84.1083 72.9807C84.1083 74.5896 84.1083 76.1367 84.1083 77.6219C84.1083 79.1071 84.1083 80.5923 84.1083 82.0775C84.1083 83.4389 84.1083 84.8622 84.1083 86.3474H29.3418V70.9385ZM291.854 39.1925C296.31 39.1925 300.27 39.8732 303.736 41.2347C307.201 42.4723 310.357 44.3288 313.204 46.8041C316.174 49.2795 318.773 52.3117 321.001 55.901H326.57V76.1367C322.115 68.9583 317.35 63.7601 312.275 60.5422C307.201 57.2005 301.879 55.5297 296.31 55.5297C292.225 55.5297 288.636 56.4579 285.542 58.3144C282.572 60.0471 280.22 62.7081 278.487 66.2973C276.878 69.7628 276.074 74.0946 276.074 79.2927V102.87C276.074 106.831 276.569 110.296 277.559 113.267C278.673 116.113 280.096 118.465 281.829 120.321C283.562 122.054 285.666 123.353 288.141 124.22C290.616 125.086 293.339 125.519 296.31 125.519C299.899 125.519 303.426 124.901 306.892 123.663C310.357 122.301 313.761 120.136 317.102 117.165C320.444 114.195 323.6 110.296 326.57 105.469V124.962H321.001C318.773 128.552 316.174 131.584 313.204 134.059C310.233 136.535 306.892 138.453 303.179 139.814C299.589 141.176 295.691 141.856 291.483 141.856C286.78 141.856 282.386 141.052 278.302 139.443C274.341 137.71 270.938 135.297 268.091 132.203C265.244 129.109 263.016 125.334 261.408 120.878C259.922 116.423 259.18 111.348 259.18 105.655V76.508C259.18 70.691 259.922 65.4928 261.408 60.9135C263.016 56.3341 265.244 52.4355 268.091 49.2176C271.061 45.9997 274.527 43.5243 278.487 41.7916C282.572 40.0589 287.027 39.1925 291.854 39.1925ZM338.823 0.763169C339.318 0.763169 339.69 0.886937 339.937 1.13447C340.185 1.25824 340.37 1.44388 340.494 1.69141C340.742 1.93895 340.865 2.31025 340.865 2.80532C340.865 12.3353 340.865 22.0509 340.865 31.9522C340.865 41.8535 340.865 51.6929 340.865 61.4704C340.865 71.248 340.865 80.9017 340.865 90.4317C340.865 99.8379 340.865 108.935 340.865 117.722C340.865 121.93 340.865 125.953 340.865 129.789C340.865 133.502 340.865 136.906 340.865 140C339.628 140 338.328 140 336.967 140C335.729 140 334.491 140 333.254 140C332.016 140 330.778 140 329.541 140C328.303 140 327.065 140 325.828 140C325.456 140 325.085 139.938 324.714 139.814C324.466 139.567 324.219 139.319 323.971 139.072C323.848 138.824 323.786 138.453 323.786 137.958C323.786 128.057 323.786 118.155 323.786 108.254C323.786 98.3527 323.786 88.5133 323.786 78.7358C323.786 68.8345 323.786 58.9332 323.786 49.0319C323.786 39.1307 323.786 29.2294 323.786 19.3281C323.786 16.3577 323.786 13.3254 323.786 10.2313C323.786 7.13712 323.786 3.98109 323.786 0.763169C325.023 0.763169 326.261 0.763169 327.499 0.763169C328.736 0.763169 329.974 0.763169 331.212 0.763169C332.449 0.763169 333.687 0.763169 334.925 0.763169C336.286 0.763169 337.586 0.763169 338.823 0.763169ZM356.387 76.1367H409.669C410.164 76.1367 410.535 76.2605 410.783 76.508C411.03 76.6318 411.216 76.8174 411.339 77.065C411.587 77.3125 411.711 77.6838 411.711 78.1789C411.711 80.6542 411.711 83.0676 411.711 85.4192C411.711 87.647 411.711 90.0604 411.711 92.6595H358.429C358.058 92.6595 357.749 92.6595 357.501 92.6595C357.254 92.5357 357.006 92.4119 356.759 92.2882C356.635 92.0407 356.511 91.7931 356.387 91.5456C356.387 91.2981 356.387 90.9886 356.387 90.6173C356.387 88.0183 356.387 85.6048 356.387 83.377C356.387 81.0255 356.387 78.612 356.387 76.1367Z" fill="#ED1C24"/>
<path d="M465.4 131.274H447.02L447.577 126.633C447.577 124.282 447.577 121.806 447.577 119.207C447.577 116.608 447.577 114.133 447.577 111.781C447.577 104.108 447.577 96.4343 447.577 88.7608C447.577 80.9636 447.577 73.2282 447.577 65.5547C447.577 57.7574 447.577 49.9602 447.577 42.1629C447.577 34.3657 447.577 26.5684 447.577 18.7711H466.328L465.4 23.4124C465.4 25.3926 465.4 27.5585 465.4 29.9101C465.4 32.1379 465.4 34.3038 465.4 36.4078C465.4 44.3288 465.4 52.2499 465.4 60.1709C465.4 68.0919 465.4 76.0129 465.4 83.934C465.4 91.855 465.4 99.776 465.4 107.697C465.4 115.494 465.4 123.353 465.4 131.274ZM488.791 140H426.228C425.856 140 425.547 139.938 425.299 139.814C425.052 139.691 424.804 139.567 424.557 139.443C424.433 139.196 424.309 138.948 424.186 138.7C424.186 138.453 424.186 138.205 424.186 137.958C424.186 136.349 424.186 134.864 424.186 133.502C424.186 132.017 424.186 130.532 424.186 129.047C424.186 127.562 424.186 126.014 424.186 124.405H486.749C487.121 124.405 487.43 124.529 487.678 124.777C488.049 124.901 488.296 125.148 488.42 125.519C488.668 125.767 488.791 126.076 488.791 126.448C488.791 128.057 488.791 129.604 488.791 131.089C488.791 132.574 488.791 134.059 488.791 135.544C488.791 136.906 488.791 138.391 488.791 140ZM424.186 10.0456H486.749C487.368 10.0456 487.863 10.2313 488.234 10.6026C488.606 10.9739 488.791 11.4689 488.791 12.0878C488.791 13.3254 488.791 14.5012 488.791 15.6151C488.791 16.729 488.791 17.8429 488.791 18.9568C488.791 19.9469 488.791 20.9989 488.791 22.1128C488.791 23.2267 488.791 24.4025 488.791 25.6401H426.228C425.609 25.6401 425.114 25.4545 424.742 25.0832C424.371 24.5881 424.186 24.0931 424.186 23.598C424.186 22.3604 424.186 21.1846 424.186 20.0707C424.186 18.9568 424.186 17.9048 424.186 16.9146C424.186 15.8007 424.186 14.6869 424.186 13.573C424.186 12.4591 424.186 11.2833 424.186 10.0456Z" fill="#518A00"/>
<g clip-path="url(#clip0_101_127)">
<path d="M154.566 86.7212C154.609 86.5498 154.656 86.3915 154.706 86.2506C155.116 86.9006 155.496 87.8901 155.819 89.3303C155.462 90.2645 155.173 90.8134 154.946 91.0767C154.831 91.209 154.736 91.2649 154.658 91.2669C154.582 91.2689 154.514 91.2186 154.455 91.1162C154.397 91.014 154.351 90.8641 154.316 90.677C154.281 90.4902 154.258 90.2678 154.246 90.0217C154.222 89.5295 154.241 88.9437 154.297 88.3611C154.353 87.7784 154.445 87.1996 154.566 86.7212ZM160.037 81.5517C158.141 84.5594 156.664 87.2175 155.914 89.0871L156.214 87.7238L156.216 87.7241L156.214 87.7144C155.991 86.7211 155.774 86.1154 155.568 85.8037C155.465 85.648 155.363 85.5621 155.261 85.5412C155.158 85.5199 155.06 85.5669 154.972 85.6614C154.885 85.7556 154.803 85.899 154.729 86.0776C154.718 86.1041 154.708 86.1313 154.697 86.1593C154.287 85.5362 153.847 85.2378 153.4 85.163C152.943 85.0863 152.484 85.2454 152.052 85.5221C151.621 85.7987 151.215 86.1941 150.864 86.5936C150.513 86.9931 150.215 87.3976 149.999 87.693L149.976 87.7244C149.878 87.8579 149.798 87.9665 149.74 88.0395C149.708 88.079 149.683 88.107 149.665 88.1228C149.661 88.1257 149.658 88.1281 149.656 88.1299C149.655 88.1304 149.655 88.1308 149.654 88.1312C149.654 88.1301 149.654 88.1288 149.654 88.1273C149.654 88.1176 149.656 88.1038 149.66 88.0852C149.668 88.0481 149.682 87.9951 149.705 87.9239C149.751 87.7817 149.827 87.5697 149.938 87.2733C150.068 86.925 150.246 86.4608 150.477 85.8575C150.639 85.4345 150.828 84.9431 151.044 84.3753C151.299 83.7068 151.574 82.9817 151.867 82.2082C153.988 76.6071 157.071 68.4651 160.635 60.8477C162.663 56.5131 164.846 52.3489 167.097 48.9199C169.347 45.4903 171.663 42.7985 173.955 41.4057C183.137 35.827 193.673 34.0312 203.845 36.3114C214.017 38.5916 223.225 44.8135 229.967 53.9626C236.708 63.1118 240.584 74.6477 240.963 86.6884C241.342 98.729 238.201 110.563 232.052 120.26C225.904 129.957 217.113 136.944 207.111 140.082C197.116 143.218 186.502 142.326 176.999 137.55L184.894 122.613C188.128 124.238 191.027 125.047 193.968 125.183C196.915 125.319 199.903 124.78 203.312 123.71C210.133 121.57 216.128 116.805 220.32 110.193C224.512 103.582 226.653 95.5136 226.395 87.3057C226.137 79.0978 223.495 71.2338 218.899 64.9968C214.303 58.7597 208.025 54.5173 201.089 52.9624C194.153 51.4075 186.967 52.6321 180.706 56.4365C179.139 57.3888 176.979 59.452 174.577 62.1261C172.175 64.8008 169.529 68.0886 166.989 71.4918C164.449 74.8951 162.015 78.4142 160.037 81.5517ZM154.728 86.2079C154.727 86.2055 154.725 86.2031 154.724 86.2007C154.738 86.1631 154.752 86.1268 154.766 86.0921C154.84 85.9155 154.918 85.7779 155 85.6896C155.082 85.6018 155.166 85.5649 155.251 85.5824C155.338 85.6004 155.433 85.6761 155.534 85.8289C155.736 86.1338 155.951 86.7316 156.173 87.7217L155.84 89.2375C155.518 87.8255 155.138 86.8508 154.728 86.2079Z" fill="#ED1C24" stroke="#ED1C24" stroke-width="0.041235"/>
<path d="M189.916 89.9588C189.873 90.1302 189.826 90.2886 189.776 90.4294C189.366 89.7794 188.986 88.7899 188.664 87.3497C189.02 86.4155 189.309 85.8666 189.536 85.6033C189.651 85.4711 189.746 85.4151 189.824 85.4131C189.9 85.4112 189.968 85.4615 190.027 85.5639C190.085 85.666 190.132 85.816 190.166 86.003C190.201 86.1898 190.224 86.4122 190.236 86.6583C190.26 87.1505 190.241 87.7363 190.185 88.319C190.129 88.9016 190.037 89.4804 189.916 89.9588ZM184.445 95.1283C186.341 92.1207 187.818 89.4626 188.568 87.593L188.268 88.9563L188.266 88.9559L188.268 88.9657C188.491 89.959 188.708 90.5646 188.914 90.8764C189.017 91.032 189.119 91.1179 189.221 91.1388C189.324 91.1601 189.422 91.1131 189.51 91.0186C189.598 90.9245 189.679 90.7811 189.753 90.6024C189.764 90.576 189.774 90.5488 189.785 90.5208C190.195 91.1438 190.635 91.4422 191.082 91.517C191.539 91.5937 191.998 91.4347 192.43 91.158C192.861 90.8813 193.267 90.4859 193.618 90.0864C193.969 89.6869 194.267 89.2824 194.484 88.9871L194.506 88.956C194.604 88.8224 194.684 88.7136 194.743 88.6405C194.774 88.601 194.799 88.5731 194.817 88.5573C194.821 88.5543 194.824 88.5519 194.826 88.5501C194.827 88.5497 194.827 88.5492 194.828 88.5488C194.828 88.5499 194.828 88.5513 194.828 88.5527C194.828 88.5624 194.826 88.5763 194.822 88.5949C194.815 88.6319 194.8 88.685 194.777 88.7562C194.732 88.8983 194.655 89.1103 194.544 89.4067C194.414 89.755 194.236 90.219 194.005 90.8221C193.843 91.2452 193.654 91.7368 193.438 92.3047C193.183 92.9733 192.908 93.6984 192.615 94.472C190.494 100.073 187.411 108.215 183.847 115.832C181.819 120.167 179.636 124.331 177.385 127.76C175.135 131.19 172.819 133.882 170.527 135.274C161.345 140.853 150.809 142.649 140.637 140.369C130.465 138.088 121.257 131.867 114.516 122.717C107.774 113.568 103.898 102.032 103.519 89.9916C103.14 77.951 106.282 66.1169 112.43 56.4201C118.578 46.7233 127.37 39.7361 137.371 36.5979C147.366 33.4615 157.98 34.3541 167.483 39.1302L159.588 54.0673C156.354 52.4424 153.455 51.6332 150.514 51.4972C147.567 51.361 144.579 51.9004 141.17 52.9701C134.349 55.1103 128.354 59.8753 124.162 66.4869C119.97 73.0985 117.829 81.1664 118.087 89.3743C118.345 97.5822 120.987 105.446 125.583 111.683C130.179 117.92 136.457 122.163 143.393 123.718C150.329 125.273 157.515 124.048 163.776 120.243C165.343 119.291 167.503 117.228 169.905 114.554C172.307 111.879 174.953 108.591 177.493 105.188C180.033 101.785 182.467 98.2658 184.445 95.1283ZM189.754 90.4721C189.755 90.4745 189.757 90.4769 189.758 90.4794C189.744 90.5169 189.73 90.5532 189.716 90.5879C189.642 90.7646 189.564 90.9021 189.482 90.9904C189.4 91.0783 189.316 91.1151 189.231 91.0976C189.144 91.0797 189.049 91.004 188.948 90.8511C188.747 90.5463 188.531 89.9484 188.309 88.9583L188.642 87.4425C188.965 88.8546 189.344 89.8292 189.754 90.4721Z" fill="#ED1C24" stroke="#ED1C24" stroke-width="0.041235"/>
<path d="M160.202 79.7258L160.438 80.4228L160.985 81.2735L161.374 81.6596L162.232 82.664L162.936 83.9794L162.861 84.5227L162.325 85.9989L151.257 108.388L150.564 109.399L150.099 109.556L149.166 109.095L149.009 108.631L149.391 107.465L150.467 105.289L156.076 93.551L156.999 91.6853L156.842 91.2206L155.909 90.7594L155.212 90.9953L154.826 91.3849L147.215 106.389L146.907 107.011L146.521 107.401L146.057 107.558L145.124 107.097L144.967 106.632L145.195 105.778L145.503 105.156L146.579 102.979L152.803 89.9979L152.956 89.6869L152.799 89.2223L151.866 88.7611L151.169 88.997L150.783 89.3865L150.476 90.0085L142.865 105.013L142.479 105.403L142.247 105.481L142.014 105.56L141.081 105.099L141.003 104.866L141.074 104.349L141.078 104.323L141.232 104.012L141.074 104.349L148.145 89.2434L148.76 87.9996L148.914 87.6886L148.757 87.2239L147.824 86.7628L147.127 86.9986L145.204 90.4978L138.59 103.093L138.204 103.483L137.972 103.561L137.661 103.408L137.039 103.1L136.882 102.636L136.957 102.092L137.11 101.781L137.572 100.848L138.187 99.6047L146.487 82.8131L147.41 80.9473L148.024 79.7035L148.332 79.0816L148.639 78.4597L149.179 77.7591L149.565 77.3696L149.797 77.291L150.494 77.0551L151.813 77.1267L152.9 77.2769L153.676 77.2734L154.373 77.0375L155.07 76.8016L155.688 76.3334L155.995 75.7115L158.837 69.571L159.145 68.9491L160.142 66.5401L160.296 66.2291L165.271 68.6886L161.042 76.8521L160.427 78.0959L160.274 78.4069L160.199 78.9502L160.202 79.7258Z" fill="#ED1C24"/>
<path d="M201.231 95.8469C198.965 99.6593 195.853 102.462 192.668 103.92C189.482 105.379 186.26 105.481 183.716 103.969C181.172 102.457 179.721 99.5788 179.478 96.0829C179.237 92.5888 180.21 88.5153 182.475 84.7028C184.74 80.8903 187.852 78.088 191.037 76.6298C194.223 75.1708 197.445 75.0691 199.989 76.5807C202.533 78.0924 203.985 80.9709 204.227 84.4668C204.469 87.9609 203.496 92.0344 201.231 95.8469Z" fill="#ED1C24" stroke="#ED1C24" stroke-width="0.730263"/>
<path d="M180.338 97.7564L181.425 97.2187L182.944 98.2897L185.948 98.47L190.84 101.1L189.51 104.412L189.95 105.132L187.857 105.594L187.167 105.779L186.937 105.841L186.248 106.025L186.018 106.087L185.62 106.44L179.793 116.869L175.118 113.195L180.896 103.518L180.88 102.537L180.756 102.078L180.633 101.618L180.572 101.388L179.849 99.6114L180.079 99.5498L180.354 98.7372L180.338 97.7564Z" fill="#ED1C24"/>
<path d="M179.849 99.6114L180.079 99.5498L180.354 98.7372L180.338 97.7564L181.425 97.2187L182.944 98.2897L185.948 98.47L190.84 101.1L189.51 104.412L189.95 105.132L187.857 105.594L187.167 105.779L186.937 105.841L186.248 106.025L186.018 106.087L185.62 106.44L179.793 116.869L175.118 113.195L180.896 103.518L180.88 102.537M179.849 99.6114L180.156 100.022M179.849 99.6114L180.572 101.388L180.633 101.618L180.756 102.078L180.88 102.537M180.88 102.537L180.941 102.767" stroke="#ED1C24" stroke-width="0.146053"/>
<path d="M153.384 85.1687C152.435 86.0483 151.391 86.5814 150.473 86.7331C149.554 86.8848 148.762 86.6547 148.311 86.0118C147.86 85.3688 147.815 84.4064 148.122 83.3824C148.429 82.3587 149.086 81.2761 150.036 80.3967C150.985 79.5174 152.046 79.0087 152.981 78.8814C153.918 78.7541 154.727 79.0085 155.178 79.6515C155.629 80.2944 155.657 81.2321 155.333 82.2315C155.009 83.2308 154.334 84.2891 153.384 85.1687Z" fill="white" stroke="#ED1C24" stroke-width="0.0361503"/>
<rect x="-0.00606048" y="0.0266794" width="5.58085" height="9.33671" transform="matrix(0.478215 0.844187 -0.813509 0.631842 154.97 78.7008)" fill="#ED1C24" stroke="#ED1C24" stroke-width="0.0361503"/>
<path d="M201.64 87.7925C203.108 89.4579 199.374 95.3908 195.952 99.4678C192.53 103.545 189.572 104.137 188.105 102.471C186.638 100.806 188.231 96.3877 191.653 92.3106C195.075 88.2336 200.173 86.1271 201.64 87.7925Z" fill="white"/>
<rect width="19.8632" height="9.57505" transform="matrix(0.781039 -0.634383 0.512035 0.852549 182.697 94.6302)" fill="#ED1C24"/>
</g>
<defs>
<clipPath id="clip0_101_127">
<rect width="138.75" height="108.079" fill="white" transform="translate(102.688 34.3002)"/>
</clipPath>
</defs>
</svg>
